<?xml version="1.0"?>
<svg xmlns="http://www.w3.org/2000/svg" height="512px" viewBox="0 -2 512 512" width="512px" class=""><g><path d="m32 360.640625v-88.640625c-17.671875 0-32-14.328125-32-32v-208c0-17.671875 14.328125-32 32-32h320c17.671875 0 32 14.328125 32 32v272h-267.199219zm0 0" fill="#b2ebf2" data-original="#B2EBF2" class="" style="fill:#F788EE" data-old_color="#b2ebf2"/><path d="m480 411.601562-100.257812-57.363281h-155.742188c-17.671875 0-32-14.324219-32-32v-162.238281c0-17.671875 14.328125-32 32-32h256c17.671875 0 32 14.328125 32 32v144c0 17.671875-14.328125 32-32 32zm0 0" fill="#80deea" data-original="#80DEEA" class="active-path" style="fill:#1273EB" data-old_color="#80deea"/><path d="m80 64h224c8.835938 0 16 7.164062 16 16s-7.164062 16-16 16h-224c-8.835938 0-16-7.164062-16-16s7.164062-16 16-16zm0 0" fill="#fff" data-original="#FFF" class=""/><path d="m80 128h64c8.835938 0 16 7.164062 16 16s-7.164062 16-16 16h-64c-8.835938 0-16-7.164062-16-16s7.164062-16 16-16zm0 0" fill="#fff" data-original="#FFF" class=""/><path d="m160 507.585938v-75.585938h-32c-17.671875 0-32-14.328125-32-32v-160c0-17.671875 14.328125-32 32-32h240c17.671875 0 32 14.328125 32 32v160c0 17.671875-14.328125 32-32 32h-75.742188zm0 0" fill="#4dd0e1" data-original="#4DD0E1" class=""/><g fill="#fff"><path d="m176 272h144c8.835938 0 16 7.164062 16 16s-7.164062 16-16 16h-144c-8.835938 0-16-7.164062-16-16s7.164062-16 16-16zm0 0" data-original="#FFF" class=""/><path d="m304 368h-32v-32h32zm-64 0h-64c-8.835938 0-16-7.164062-16-16s7.164062-16 16-16h64zm0 0" data-original="#FFF" class=""/></g></g> </svg>
